<svg width="33" height="33" viewBox="0 0 33 33" fill="none" xmlns="http://www.w3.org/2000/svg">
<path d="M0 9.17837C0 8.28919 0.720827 7.56836 1.61001 7.56836H3.70303V24.7955H1.61001C0.720828 24.7955 0 24.0747 0 23.1855V9.17837Z" fill="url(#paint0_linear_4188_1792)"/>
<path d="M3.70312 6.44009C3.70312 5.5509 4.42395 4.83008 5.31314 4.83008H7.56715V27.5312H5.31314C4.42395 27.5312 3.70312 26.8104 3.70312 25.9212V6.44009Z" fill="url(#paint1_linear_4188_1792)"/>
<path d="M7.56738 3.62368C7.56738 2.7345 8.28821 2.01367 9.17739 2.01367H11.5924V30.3499H9.17739C8.28821 30.3499 7.56738 29.6291 7.56738 28.7399V3.62368Z" fill="url(#paint2_linear_4188_1792)"/>
<path d="M12.1059 0.596076C13.0623 -0.303242 14.2463 -0.0266117 15.3715 0.396857C15.4816 0.436726 15.5923 0.475549 15.7026 0.515021C15.8789 0.578209 16.0549 0.642409 16.2309 0.706428C16.8998 0.949693 17.5744 1.17714 18.2485 1.40565C18.6001 1.52497 18.9518 1.64593 19.3032 1.766C19.4046 1.80064 19.405 1.80009 19.5082 1.83533C20.8268 2.28578 22.1448 2.73975 23.4594 3.20154C23.7917 3.31827 24.1244 3.43452 24.4575 3.5492C24.9362 3.71421 25.4143 3.88105 25.892 4.0492C25.9445 4.06764 25.9972 4.08587 26.0512 4.10487C26.4025 4.22848 26.7534 4.35324 27.1039 4.47889C27.2199 4.52032 27.3365 4.562 27.4526 4.60291C29.3455 5.27078 30.6916 6.33329 31.6118 8.15369C32.098 9.18676 32.1488 10.2234 32.1381 11.3451C32.138 11.5011 32.138 11.6579 32.1381 11.8138C32.138 12.1381 32.1368 12.4623 32.1342 12.7865C32.131 13.1992 32.1307 13.6121 32.1313 14.0248C32.1315 14.346 32.1307 14.6675 32.1293 14.9887C32.1288 15.1406 32.1283 15.2927 32.1284 15.4447C32.1269 17.4624 31.6263 19.2332 30.1782 20.7084C29.3006 21.5589 28.2465 22.0369 27.0746 22.3431C26.8982 22.3909 26.7217 22.4385 26.5453 22.4867C26.4529 22.5119 26.3603 22.5379 26.2651 22.5638C25.7481 22.7079 25.234 22.8621 24.7202 23.017C24.6237 23.046 24.5266 23.075 24.4272 23.1049C23.986 23.2379 23.5454 23.3726 23.1059 23.5111C22.3306 23.7553 21.551 23.987 20.7709 24.2152C20.5451 24.2813 20.3189 24.348 20.0932 24.4144C19.9494 24.4566 19.8054 24.4983 19.6616 24.5404C19.5606 24.5702 19.5605 24.5706 19.4575 24.601C19.2227 24.6694 19.1076 24.6973 19.0346 24.7113L18.8637 24.7377V29.0199C18.8637 29.7019 18.5775 30.4834 18.5551 30.5092C18.5344 30.5299 18.434 30.6702 18.0717 30.8715C17.1862 31.3142 17.6691 31.0731 16.9848 31.3549C16.6918 31.4755 16.498 31.5495 16.4145 31.5775C16.2476 31.6331 16.0798 31.6881 15.9125 31.7426C15.7556 31.7937 15.5983 31.8452 15.4418 31.8978C13.5074 32.5478 13.5071 32.5481 12.6596 32.1791C12.1687 31.8833 11.8121 31.5301 11.6147 30.9847C11.5031 30.5304 11.5298 30.0593 11.5317 29.5941C11.5313 29.4737 11.5303 29.3532 11.5297 29.2328C11.5284 28.9026 11.5283 28.5718 11.5287 28.2416C11.529 27.8852 11.5278 27.5286 11.5268 27.1722C11.5251 26.4744 11.5257 25.7764 11.5258 25.0785C11.5259 24.5111 11.5254 23.9437 11.5248 23.3763C11.5247 23.2129 11.524 23.0495 11.5239 22.8861C11.5238 22.8047 11.5239 22.7229 11.5239 22.639C11.5223 21.1004 11.5223 19.5615 11.5229 18.0228C11.5233 16.6156 11.5216 15.2084 11.519 13.8012C11.5163 12.3558 11.5147 10.9105 11.5151 9.46522C11.5153 8.65388 11.5151 7.84198 11.5131 7.03065C11.5114 6.34001 11.5116 5.64902 11.5131 4.95838C11.5139 4.60623 11.5138 4.25389 11.5121 3.90174C11.5106 3.57913 11.5103 3.25657 11.5121 2.93397C11.5125 2.81753 11.5123 2.70079 11.5112 2.58436C11.5045 1.81989 11.5717 1.17951 12.1059 0.596076ZM19.5082 9.52576C19.2111 9.52451 19.2106 9.52418 18.9936 9.67908C18.778 9.96684 18.7613 10.1079 18.7582 10.4564C18.7597 10.5278 18.7617 10.5981 18.7631 10.6674C18.7629 10.9018 18.7631 11.1361 18.766 11.3705C18.7682 11.538 18.7692 11.7059 18.77 11.8734C18.771 12.3122 18.7734 12.751 18.7778 13.1898C18.7823 13.6447 18.7854 14.1001 18.7875 14.5551C18.7919 15.5346 18.7987 16.5141 18.808 17.4935C19.0495 17.4935 19.0501 17.494 19.2397 17.4525C19.3171 17.4324 19.3921 17.4124 19.4672 17.393C19.5571 17.37 19.6447 17.3479 19.7319 17.3256C20.4169 17.1488 21.1023 16.9745 21.7924 16.8187C22.5703 16.6433 23.3484 16.4684 24.1186 16.2611C24.193 16.2407 24.2651 16.2204 24.3373 16.2006C24.5929 16.1335 24.8424 16.0639 25.0873 15.9642C25.7091 15.6142 26.0354 15.1207 26.2963 14.4662C26.5053 13.7471 26.4487 12.9424 26.1342 12.2611C25.7022 11.5102 25.0932 11.1269 24.2758 10.8832C24.184 10.8573 24.0944 10.8321 24.0053 10.807C23.8175 10.7518 23.6297 10.6961 23.4418 10.641C23.198 10.5711 22.9537 10.502 22.7104 10.4301C22.436 10.3479 22.1613 10.2656 21.8862 10.1859C21.7021 10.1328 21.5182 10.079 21.3344 10.0248C21.1833 9.98012 21.0316 9.93622 20.8803 9.89197C20.8037 9.86959 20.7291 9.84729 20.6547 9.82557C20.4515 9.7651 20.2483 9.70632 20.0434 9.65174C19.9485 9.628 19.9479 9.62813 19.8549 9.60487C19.7401 9.5755 19.6245 9.54894 19.5082 9.52576Z" fill="url(#paint3_linear_4188_1792)"/>
<path d="M32.1318 14.0254C32.1321 14.3466 32.1313 14.668 32.1299 14.9893C32.1293 15.1413 32.1288 15.2933 32.1289 15.4453C32.1275 17.463 31.6268 19.2338 30.1787 20.709C29.3012 21.5594 28.247 22.0375 27.0752 22.3438C26.8986 22.3916 26.7214 22.4391 26.5449 22.4873C26.4525 22.5125 26.3598 22.5385 26.2646 22.5645C25.7479 22.7085 25.2343 22.8628 24.7207 23.0176C24.6242 23.0466 24.5271 23.0756 24.4277 23.1055C23.9863 23.2386 23.5452 23.3732 23.1055 23.5117C22.3303 23.7558 21.5515 23.9876 20.7715 24.2158C20.5456 24.282 20.3195 24.3485 20.0938 24.415C19.9499 24.4572 19.806 24.4989 19.6621 24.541C19.5611 24.5708 19.561 24.5712 19.458 24.6016C19.0431 24.7225 18.9944 24.7347 18.8652 24.7363L18.7568 17.4951H18.8838V17.4902C19.0528 17.4897 19.0726 17.4879 19.2402 17.4512C19.3176 17.4311 19.3926 17.4111 19.4678 17.3916C19.5577 17.3686 19.6452 17.3465 19.7324 17.3242C20.4174 17.1475 21.1028 16.9731 21.793 16.8174C22.5708 16.642 23.349 16.467 24.1191 16.2598C24.1936 16.2394 24.2657 16.219 24.3379 16.1992C24.5935 16.1322 24.8429 16.0625 25.0879 15.9629C25.7098 15.6128 26.036 15.1185 26.2969 14.4639C26.3849 14.1609 26.4227 13.8429 26.417 13.5254H32.1328C32.1326 13.6921 32.1316 13.8587 32.1318 14.0254Z" fill="url(#paint4_linear_4188_1792)"/>
<defs>
<linearGradient id="paint0_linear_4188_1792" x1="1.85151" y1="7.56836" x2="1.85151" y2="24.7955" gradientUnits="userSpaceOnUse">
<stop stop-color="#4B0E99"/>
<stop offset="1" stop-color="#110363"/>
</linearGradient>
<linearGradient id="paint1_linear_4188_1792" x1="5.63514" y1="4.83008" x2="5.63514" y2="27.5312" gradientUnits="userSpaceOnUse">
<stop stop-color="#6414C2"/>
<stop offset="1" stop-color="#1908A9"/>
</linearGradient>
<linearGradient id="paint2_linear_4188_1792" x1="9.5799" y1="2.01367" x2="9.5799" y2="30.3499" gradientUnits="userSpaceOnUse">
<stop stop-color="#933BEE"/>
<stop offset="1" stop-color="#271EF4"/>
</linearGradient>
<linearGradient id="paint3_linear_4188_1792" x1="20.4865" y1="-3.50171" x2="14.2076" y2="32.4412" gradientUnits="userSpaceOnUse">
<stop offset="0.0870108" stop-color="#D08BF7"/>
<stop offset="0.405432" stop-color="#6E56F6"/>
<stop offset="1" stop-color="#449DF9"/>
</linearGradient>
<linearGradient id="paint4_linear_4188_1792" x1="26.2034" y1="15.6179" x2="18.7595" y2="24.7142" gradientUnits="userSpaceOnUse">
<stop stop-color="#6F57F6"/>
<stop offset="1" stop-color="#4055EB"/>
</linearGradient>
</defs>
</svg>
